Coordinates
version=1
nRows=15
nColumns=46
inDegrees=yes

Units are S.I. units (second, meters, Newtons, ...)
Angles are in degrees.

endheader
time	pelvis_tilt	pelvis_list	pelvis_rotation	pelvis_tx	pelvis_ty	pelvis_tz	bb_angle	bb_tx	bb_ty	bb_tz	hip_flexion_r	hip_adduction_r	hip_rotation_r	knee_angle_r	knee_angle_r_beta	ankle_angle_r	subtalar_angle_r	mtp_angle_r	crank_angle_r	hip_flexion_l	hip_adduction_l	hip_rotation_l	knee_angle_l	knee_angle_l_beta	ankle_angle_l	subtalar_angle_l	mtp_angle_l	crank_angle_l	lumbar_extension	lumbar_bending	lumbar_rotation	arm_flex_r	arm_add_r	arm_rot_r	elbow_flex_r	pro_sup_r	wrist_flex_r	wrist_dev_r	arm_flex_l	arm_add_l	arm_rot_l	elbow_flex_l	pro_sup_l	wrist_flex_l	wrist_dev_l
      7.50500000	    -41.30614441	      5.33369557	     -8.72571558	      0.36665066	      1.09095941	     -0.23111716	      0.00000000	      0.50000000	      0.00000000	      0.25000000	     68.82541309	     -2.42732132	      2.55019375	     43.39917653	      0.75745852	     -9.08659978	     -2.47500682	      0.00000000	      0.00000000	     62.72781546	     -4.08025717	     -4.17285047	     76.08185324	      1.32787884	    -28.17756543	    -18.65073101	      0.00000000	      0.00000000	    -55.83923868	     -3.73900692	     -0.20667570	     51.42477748	    -27.23967070	     24.98174559	    116.49027904	     54.76642781	      0.00000000	      0.00000000	     31.50770580	    -29.86511653	      4.95629869	    120.02337420	     54.62646137	      0.00000000	      0.00000000
      7.51000000	    -41.30739243	      6.11350024	     -7.96381255	      0.36520126	      1.08948170	     -0.23130283	      0.00000000	      0.50000000	      0.00000000	      0.25000000	     67.64687053	     -3.51991360	      2.81254060	     40.90968625	      0.71400872	    -10.83649455	     -2.04572623	      0.00000000	      0.00000000	     64.38882250	     -3.21360172	     -4.35670004	     78.72968961	      1.37409230	    -27.16560507	    -18.36228664	      0.00000000	      0.00000000	    -55.57214412	     -4.02298065	     -1.22275624	     51.19201788	    -27.16705666	     24.56302508	    116.43166865	     54.69343731	      0.00000000	      0.00000000	     32.02653375	    -30.18684046	      5.38029633	    120.01822573	     54.64743013	      0.00000000	      0.00000000
      7.51500000	    -41.28755354	      6.62789343	     -7.25119782	      0.36363919	      1.08809970	     -0.23115832	      0.00000000	      0.50000000	      0.00000000	      0.25000000	     66.31850306	     -4.38292877	      2.75955312	     38.30273818	      0.66850889	    -12.97385485	     -2.20939046	      0.00000000	      0.00000000	     66.07522094	     -2.63547324	     -4.42780484	     81.40120995	      1.42071913	    -26.11483113	    -17.89284776	      0.00000000	      0.00000000	    -55.36078367	     -4.18530709	     -2.02639766	     50.85823219	    -26.92836931	     24.02088120	    116.22964252	     54.58201724	      0.00000000	      0.00000000	     32.71437561	    -30.74047435	      6.13957082	    119.98214946	     54.69178312	      0.00000000	      0.00000000
      7.52000000	    -41.16068632	      7.37307424	     -6.48400705	      0.36228074	      1.08687841	     -0.23143564	      0.00000000	      0.50000000	      0.00000000	      0.25000000	     64.97646656	     -5.55139534	      2.76851752	     35.87447450	      0.62612770	    -14.72746761	     -1.55285835	      0.00000000	      0.00000000	     67.59641764	     -1.81055571	     -4.79251011	     83.84442710	      1.46336131	    -25.30170757	    -18.00223464	      0.00000000	      0.00000000	    -55.22442539	     -4.41531391	     -3.18705447	     50.68628901	    -26.95483944	     23.92130625	    116.18553128	     54.55485685	      0.00000000	      0.00000000	     32.94028482	    -30.82425201	      6.71245796	    119.89351135	     54.72943494	      0.00000000	      0.00000000
      7.52500000	    -40.96202601	      7.62970489	     -5.78248289	      0.36082518	      1.08590494	     -0.23097213	      0.00000000	      0.50000000	      0.00000000	      0.25000000	     63.24812872	     -6.23670704	      2.54144439	     33.13026555	      0.57823222	    -17.18625968	     -1.95377618	      0.00000000	      0.00000000	     69.11926871	     -1.44692052	     -4.73627005	     86.35184298	      1.50712398	    -24.45207854	    -17.44053490	      0.00000000	      0.00000000	    -55.18332541	     -4.47453298	     -3.88287422	     50.47303981	    -26.86898369	     23.71821185	    115.81213714	     54.45903232	      0.00000000	      0.00000000	     33.69484245	    -31.46397573	      7.71580895	    119.86835611	     54.80528365	      0.00000000	      0.00000000
      7.53000000	    -40.66934568	      7.94034604	     -4.90047610	      0.36004109	      1.08521605	     -0.23101381	      0.00000000	      0.50000000	      0.00000000	      0.25000000	     61.37651566	     -7.23995940	      2.01253988	     30.49634846	      0.53226169	    -19.11454444	     -1.55881387	      0.00000000	      0.00000000	     70.43404853	     -0.83722583	     -4.79433090	     88.67328548	      1.54764079	    -23.53012576	    -17.47370528	      0.00000000	      0.00000000	    -55.24403517	     -4.40016406	     -4.84152229	     50.20897929	    -26.99847464	     23.64498546	    115.66156121	     54.42103088	      0.00000000	      0.00000000	     34.24264893	    -31.58919082	      8.03364408	    119.75975854	     54.79797867	      0.00000000	      0.00000000
      7.53500000	    -40.43251053	      8.27868719	     -4.15752462	      0.35826080	      1.08389083	     -0.23095789	      0.00000000	      0.50000000	      0.00000000	      0.25000000	     59.72383983	     -8.05709159	      1.69544912	     28.01002732	      0.48886720	    -21.51654646	     -2.00338530	      0.00000000	      0.00000000	     71.96502135	     -0.42312496	     -4.91393989	     91.12033668	      1.59034989	    -22.40382912	    -16.94689106	      0.00000000	      0.00000000	    -55.17121093	     -4.45623928	     -5.55983140	     50.12227232	    -27.22657466	     23.62978262	    115.34458831	     54.36296865	      0.00000000	      0.00000000	     35.13103526	    -31.85514174	      8.85427560	    119.45592620	     54.80201166	      0.00000000	      0.00000000
      7.54000000	    -40.10173637	      8.55678070	     -3.31222838	      0.35677968	      1.08279728	     -0.23136831	      0.00000000	      0.50000000	      0.00000000	      0.25000000	     57.92745165	     -9.03112935	      1.08178817	     25.61816435	      0.44712132	    -23.67728426	     -1.79249234	      0.00000000	      0.00000000	     73.35364485	      0.09982988	     -5.02663397	     93.44114792	      1.63085569	    -21.17084833	    -16.62175463	      0.00000000	      0.00000000	    -55.15389053	     -4.38980325	     -6.24355241	     49.98318084	    -27.74118559	     23.52297541	    115.04476453	     54.30573119	      0.00000000	      0.00000000	     36.33933736	    -31.79899782	      8.85079356	    119.01906372	     54.67548290	      0.00000000	      0.00000000
      7.54500000	    -39.92529791	      8.73858081	     -2.53598035	      0.35492195	      1.08121116	     -0.23100131	      0.00000000	      0.50000000	      0.00000000	      0.25000000	     56.32708150	     -9.78176236	      0.42124899	     23.34985104	      0.40753178	    -25.84323458	     -1.60511189	      0.00000000	      0.00000000	     74.94157067	      0.31188744	     -5.12099803	     95.74269444	      1.67102525	    -19.88491458	    -16.20276929	      0.00000000	      0.00000000	    -54.91332286	     -4.38275462	     -6.93739417	     49.73685205	    -27.98031538	     23.47664291	    114.67930611	     54.24628796	      0.00000000	      0.00000000	     37.04267602	    -31.89486750	      9.34846077	    118.62974640	     54.63171468	      0.00000000	      0.00000000
      7.55000000	    -39.59962706	      8.75120829	     -1.56522154	      0.35373363	      1.08013121	     -0.23137690	      0.00000000	      0.50000000	      0.00000000	      0.25000000	     54.45614507	    -10.70243620	     -0.84247838	     21.13020200	      0.36879160	    -27.92266727	     -0.90253644	      0.00000000	      0.00000000	     76.31039539	      0.70500638	     -5.07828920	     97.86084543	      1.70799396	    -18.72917049	    -15.96944804	      0.00000000	      0.00000000	    -54.82749389	     -4.03250813	     -7.73076832	     49.50241151	    -28.17760987	     23.44077135	    114.30701356	     54.18690431	      0.00000000	      0.00000000	     37.58559472	    -31.94511607	      9.64933001	    118.35483639	     54.59817606	      0.00000000	      0.00000000
      7.55500000	    -39.34555852	      8.77216580	     -0.75087496	      0.35180995	      1.07858953	     -0.23168868	      0.00000000	      0.50000000	      0.00000000	      0.25000000	     52.82773766	    -11.45396159	     -1.90595790	     19.17991916	      0.33475274	    -29.92152987	     -0.42831059	      0.00000000	      0.00000000	     77.85862722	      0.93600227	     -5.05953403	    100.00705279	      1.74545235	    -17.29951045	    -15.55403085	      0.00000000	      0.00000000	    -54.65108114	     -3.83076496	     -8.35500501	     49.48409892	    -28.35370385	     23.43143301	    113.72149683	     54.09264456	      0.00000000	      0.00000000	     38.22006323	    -31.98787658	     10.03558039	    117.94396636	     54.54665120	      0.00000000	      0.00000000
      7.56000000	    -39.27581614	      8.93683455	     -0.02165408	      0.34957218	      1.07665254	     -0.23219775	      0.00000000	      0.50000000	      0.00000000	      0.25000000	     51.61464675	    -12.27191380	     -3.00369900	     17.58058656	      0.30683912	    -31.72098712	      0.39315030	      0.00000000	      0.00000000	     79.58608154	      1.10461490	     -5.32126913	    102.01058604	      1.78042060	    -16.06709106	    -15.60086971	      0.00000000	      0.00000000	    -54.25621769	     -3.78885381	     -9.14998280	     49.42604241	    -28.55523062	     23.45989826	    113.38678049	     54.04365083	      0.00000000	      0.00000000	     38.67268902	    -31.99302092	     10.23329424	    117.75613442	     54.52372474	      0.00000000	      0.00000000
      7.56500000	    -39.17760341	      8.84939142	      0.79464810	      0.34719530	      1.07498725	     -0.23287565	      0.00000000	      0.50000000	      0.00000000	      0.25000000	     50.21189324	    -12.96170290	     -4.38787679	     15.81065434	      0.27594798	    -33.74561026	      1.26516450	      0.00000000	      0.00000000	     81.30884152	      1.31045742	     -5.29487553	    103.83780377	      1.81231156	    -14.97518685	    -15.25831058	      0.00000000	      0.00000000	    -53.83721445	     -3.45105942	     -9.74701275	     49.34015821	    -28.67489523	     23.57765279	    112.79119900	     53.96323147	      0.00000000	      0.00000000	     39.19468795	    -31.95472148	     10.53057364	    117.48073783	     54.49595969	      0.00000000	      0.00000000
      7.57000000	    -38.88515842	      8.50141610	      1.56916598	      0.34462290	      1.07356012	     -0.23324000	      0.00000000	      0.50000000	      0.00000000	      0.25000000	     48.55127248	    -13.36854867	     -5.99120208	     14.06509342	      0.24548219	    -35.69428261	      1.84587205	      0.00000000	      0.00000000	     82.90014640	      1.41697229	     -4.92436023	    105.59195166	      1.84292722	    -13.86349883	    -14.35476967	      0.00000000	      0.00000000	    -53.49261232	     -2.99582646	    -10.09608963	     49.64752378	    -28.62317253	     23.82042919	    111.61705957	     53.79694184	      0.00000000	      0.00000000	     39.84676674	    -31.89584478	     11.27330207	    116.56249797	     54.40188776	      0.00000000	      0.00000000
      7.57500000	    -39.03798903	      8.80170804	      2.18099782	      0.34108136	      1.07133308	     -0.23379491	      0.00000000	      0.50000000	      0.00000000	      0.25000000	     47.95321539	    -14.21017083	     -6.99864933	     13.06668648	      0.22805670	    -37.31235971	      2.85982960	      0.00000000	      0.00000000	     84.90162010	      1.66250984	     -5.28865484	    107.06255780	      1.86859414	    -13.06223251	    -14.40014596	      0.00000000	      0.00000000	    -52.78650914	     -3.15562886	    -10.85167296	     49.59672470	    -28.80222883	     23.86958740	    111.07235183	     53.71708436	      0.00000000	      0.00000000	     40.50248272	    -31.86231701	     11.35113041	    116.29853104	     54.34637391	      0.00000000	      0.00000000
